<svg version="1.1" id="Layer_1" xmlns="http://www.w3.org/2000/svg" xmlns:xlink="http://www.w3.org/1999/xlink" x="0px" y="0px"
	 width="100%" viewBox="0 0 512 512" enable-background="new 0 0 512 512" xml:space="preserve">
<path fill="#ED3432" opacity="1.000000" stroke="none" 
	d="
M235.000000,1.000002 
	C249.020889,1.000000 263.041779,1.000000 277.653229,1.338652 
	C279.863770,1.953411 281.483734,2.229518 283.286011,2.801532 
	C289.827667,9.170470 296.745972,14.764840 302.436615,21.410486 
	C316.810944,38.197212 325.938965,57.992981 333.011536,78.720375 
	C342.052734,105.217300 348.528229,132.377609 351.934601,160.174667 
	C354.334015,179.754791 356.000092,199.424805 357.530090,219.128052 
	C334.903046,219.223724 312.738129,219.125229 290.577087,219.372803 
	C286.272064,219.420883 284.521912,217.928024 283.259277,213.955292 
	C274.634583,186.819199 265.772858,159.758423 256.972076,132.678375 
	C256.410278,130.949692 255.718857,129.263123 254.680557,126.456223 
	C253.743362,129.055222 253.261566,130.284546 252.853714,131.537933 
	C243.888733,159.089737 234.850845,186.618423 226.066727,214.227829 
	C224.841553,218.078674 223.149841,219.389252 219.079544,219.363785 
	C190.417496,219.184448 161.753799,219.264801 133.090622,219.278839 
	C131.341293,219.279694 129.592026,219.422562 126.401154,219.562668 
	C129.057678,221.605545 130.550552,222.810837 132.100815,223.937134 
	C155.016693,240.586349 177.874298,257.317352 200.929047,273.772125 
	C204.616867,276.404205 205.152924,278.705353 203.778763,282.837219 
	C194.793045,309.855530 186.063248,336.958984 177.267624,364.040375 
	C176.736420,365.675934 176.358398,367.361267 175.573730,370.264160 
	C178.200058,368.467834 179.712082,367.486664 181.168839,366.429352 
	C204.092880,349.791748 227.069641,333.225433 249.865509,316.413910 
	C253.384598,313.818634 255.714691,313.575317 259.352295,316.260071 
	C282.410034,333.277924 305.657196,350.039093 328.847290,366.877502 
	C330.210388,367.867188 331.620697,368.791870 334.004944,370.431885 
	C333.128693,367.490601 332.694305,365.911560 332.189331,364.355438 
	C323.246552,336.796417 314.282318,309.244354 305.371704,281.674957 
	C304.707031,279.618591 303.262238,277.582825 306.106506,275.558167 
	C323.747314,263.000854 341.276855,250.287201 358.875092,238.116699 
	C358.612793,254.232407 358.799622,269.884460 357.905396,285.474487 
	C356.737152,305.841461 355.226562,326.217285 352.938293,346.484863 
	C349.439911,377.470917 342.674835,407.830902 332.317810,437.272156 
	C325.503540,456.642670 317.109192,475.370422 303.482758,491.069244 
	C297.199707,498.307831 289.923462,504.684357 282.777557,511.602142 
	C280.971710,512.168335 279.485840,512.584167 278.000000,513.000000 
	C263.979095,513.000000 249.958206,513.000000 235.309540,512.625671 
	C222.202911,510.267883 209.520508,509.116241 197.288773,506.122955 
	C173.824905,500.381042 151.414734,491.703033 130.352814,479.593811 
	C116.476624,471.615875 103.415100,462.527985 91.262863,452.227539 
	C71.994293,435.895203 54.885624,417.341370 41.931126,395.676758 
	C32.421570,379.773315 24.509529,362.807892 17.098871,345.787445 
	C10.259715,330.079651 6.633015,313.261475 4.057138,296.282623 
	C3.229320,290.826080 2.029585,285.425934 1.000000,280.000000 
	C1.000000,264.979095 1.000000,249.958206 1.373448,234.321838 
	C4.378730,214.263641 7.749512,195.013000 14.005405,176.307114 
	C20.847652,155.847946 30.037540,136.522781 41.590282,118.408592 
	C51.605011,102.705948 63.113564,88.009880 76.774460,75.266731 
	C86.838898,65.878426 96.780434,56.025982 108.161026,48.463581 
	C122.992729,38.607925 138.859238,30.127260 154.891251,22.307152 
	C174.206009,12.885804 195.016968,7.691524 216.192749,4.122191 
	C222.459213,3.065931 228.730774,2.039891 235.000000,1.000002 
z"/>
<path fill="#E12A28" opacity="1.000000" stroke="none" 
	d="
M283.097565,511.451752 
	C289.923462,504.684357 297.199707,498.307831 303.482758,491.069244 
	C317.109192,475.370422 325.503540,456.642670 332.317810,437.272156 
	C342.674835,407.830902 349.439911,377.470917 352.938293,346.484863 
	C355.226562,326.217285 356.737152,305.841461 357.905396,285.474487 
	C358.799622,269.884460 358.612793,254.232407 359.080139,237.866547 
	C366.876312,231.522400 374.499146,225.919662 382.121948,220.316925 
	C381.972839,219.896179 381.823730,219.475418 381.674591,219.054672 
	C373.780945,219.054672 365.887268,219.054672 357.993591,219.054672 
	C356.000092,199.424805 354.334015,179.754791 351.934601,160.174667 
	C348.528229,132.377609 342.052734,105.217300 333.011536,78.720375 
	C325.938965,57.992981 316.810944,38.197212 302.436615,21.410486 
	C296.745972,14.764840 289.827667,9.170470 283.736206,2.757138 
	C307.459015,4.668117 330.194366,10.246593 351.965088,19.012959 
	C377.500488,29.295244 400.941101,43.322678 422.026154,61.228443 
	C438.477112,75.198837 452.992615,90.914635 465.567841,108.370392 
	C479.238434,127.346565 490.456879,147.822388 497.696442,170.048904 
	C502.818542,185.774673 505.997437,202.138779 509.904633,218.251678 
	C511.164185,223.445892 511.980743,228.747513 513.000000,234.000000 
	C513.000000,249.020889 513.000000,264.041779 512.623901,279.673157 
	C512.075562,281.091461 511.825012,281.891327 511.742371,282.708191 
	C508.473022,315.028198 499.500183,345.758087 484.588928,374.535095 
	C469.759827,403.153473 450.474335,428.645844 425.618378,449.323181 
	C412.500153,460.236023 398.698883,470.671692 383.986328,479.224823 
	C369.995667,487.358276 354.662262,493.403046 339.473236,499.197052 
	C321.392548,506.094177 302.450165,509.941376 283.097565,511.451752 
z"/>
<path fill="#FFFEFE" opacity="1.000000" stroke="none" 
	d="
M282.777557,511.602142 
	C302.450165,509.941376 321.392548,506.094177 339.473236,499.197052 
	C354.662262,493.403046 369.995667,487.358276 383.986328,479.224823 
	C398.698883,470.671692 412.500153,460.236023 425.618378,449.323181 
	C450.474335,428.645844 469.759827,403.153473 484.588928,374.535095 
	C499.500183,345.758087 508.473022,315.028198 511.742371,282.708191 
	C511.825012,281.891327 512.075562,281.091461 512.623901,280.141846 
	C513.000000,357.594025 513.000000,435.188019 513.000000,513.000000 
	C434.979248,513.000000 356.958282,513.000000 278.468658,513.000000 
	C279.485840,512.584167 280.971710,512.168335 282.777557,511.602142 
z"/>
<path fill="#FFFEFE" opacity="1.000000" stroke="none" 
	d="
M1.000000,280.468658 
	C2.029585,285.425934 3.229320,290.826080 4.057138,296.282623 
	C6.633015,313.261475 10.259715,330.079651 17.098871,345.787445 
	C24.509529,362.807892 32.421570,379.773315 41.931126,395.676758 
	C54.885624,417.341370 71.994293,435.895203 91.262863,452.227539 
	C103.415100,462.527985 116.476624,471.615875 130.352814,479.593811 
	C151.414734,491.703033 173.824905,500.381042 197.288773,506.122955 
	C209.520508,509.116241 222.202911,510.267883 234.840881,512.625671 
	C157.073120,513.000000 79.146240,513.000000 1.000000,513.000000 
	C1.000000,435.645905 1.000000,358.291626 1.000000,280.468658 
z"/>
<path fill="#FFFEFE" opacity="1.000000" stroke="none" 
	d="
M513.000000,233.531342 
	C511.980743,228.747513 511.164185,223.445892 509.904633,218.251678 
	C505.997437,202.138779 502.818542,185.774673 497.696442,170.048904 
	C490.456879,147.822388 479.238434,127.346565 465.567841,108.370392 
	C452.992615,90.914635 438.477112,75.198837 422.026154,61.228443 
	C400.941101,43.322678 377.500488,29.295244 351.965088,19.012959 
	C330.194366,10.246593 307.459015,4.668117 283.553925,2.461231 
	C281.483734,2.229518 279.863770,1.953411 278.121887,1.338652 
	C356.260040,1.000000 434.520111,1.000000 513.000000,1.000000 
	C513.000000,78.354088 513.000000,155.708389 513.000000,233.531342 
z"/>
<path fill="#FFFEFE" opacity="1.000000" stroke="none" 
	d="
M234.531342,1.000002 
	C228.730774,2.039891 222.459213,3.065931 216.192749,4.122191 
	C195.016968,7.691524 174.206009,12.885804 154.891251,22.307152 
	C138.859238,30.127260 122.992729,38.607925 108.161026,48.463581 
	C96.780434,56.025982 86.838898,65.878426 76.774460,75.266731 
	C63.113564,88.009880 51.605011,102.705948 41.590282,118.408592 
	C30.037540,136.522781 20.847652,155.847946 14.005405,176.307114 
	C7.749512,195.013000 4.378730,214.263641 1.373448,233.853180 
	C1.000000,156.406128 1.000000,78.812256 1.000000,1.000000 
	C78.687424,1.000000 156.375061,1.000000 234.531342,1.000002 
z"/>
<path fill="#FDCD0C" opacity="1.000000" stroke="none" 
	d="
M357.530090,219.128052 
	C365.887268,219.054672 373.780945,219.054672 381.674591,219.054672 
	C381.823730,219.475418 381.972839,219.896179 382.121948,220.316925 
	C374.499146,225.919662 366.876312,231.522400 359.048401,237.375290 
	C341.276855,250.287201 323.747314,263.000854 306.106506,275.558167 
	C303.262238,277.582825 304.707031,279.618591 305.371704,281.674957 
	C314.282318,309.244354 323.246552,336.796417 332.189331,364.355438 
	C332.694305,365.911560 333.128693,367.490601 334.004944,370.431885 
	C331.620697,368.791870 330.210388,367.867188 328.847290,366.877502 
	C305.657196,350.039093 282.410034,333.277924 259.352295,316.260071 
	C255.714691,313.575317 253.384598,313.818634 249.865509,316.413910 
	C227.069641,333.225433 204.092880,349.791748 181.168839,366.429352 
	C179.712082,367.486664 178.200058,368.467834 175.573730,370.264160 
	C176.358398,367.361267 176.736420,365.675934 177.267624,364.040375 
	C186.063248,336.958984 194.793045,309.855530 203.778763,282.837219 
	C205.152924,278.705353 204.616867,276.404205 200.929047,273.772125 
	C177.874298,257.317352 155.016693,240.586349 132.100815,223.937134 
	C130.550552,222.810837 129.057678,221.605545 126.401154,219.562668 
	C129.592026,219.422562 131.341293,219.279694 133.090622,219.278839 
	C161.753799,219.264801 190.417496,219.184448 219.079544,219.363785 
	C223.149841,219.389252 224.841553,218.078674 226.066727,214.227829 
	C234.850845,186.618423 243.888733,159.089737 252.853714,131.537933 
	C253.261566,130.284546 253.743362,129.055222 254.680557,126.456223 
	C255.718857,129.263123 256.410278,130.949692 256.972076,132.678375 
	C265.772858,159.758423 274.634583,186.819199 283.259277,213.955292 
	C284.521912,217.928024 286.272064,219.420883 290.577087,219.372803 
	C312.738129,219.125229 334.903046,219.223724 357.530090,219.128052 
z"/>
</svg>